# xmcd
# 
# Track frame offsets:
#     150
#     25145
#     48300
#     66175
#     85977
#     103172
#     127727
#     145910
#     164670
#     190112
#     207050
#     231910
#     249192
#     277580
# 
# Disc length: 3935
# 
# Revision: 9
# Processed by: cddbd v1.5.2PL0 Copyright (c) Steve Scherf et al.
# Submitted via: BonkEnc v1.0.8
# 
DISCID=b80f5d0e
DTITLE=徳永英明 - VOCALIST 3
DYEAR=2007
DGENRE=JPop
TTITLE0=恋におちて-Fall in Love-
TTITLE1=PRIDE
TTITLE2=桃色吐息
TTITLE3=わかれうた
TTITLE4=やさしいキスをして
TTITLE5=Time goes by
TTITLE6=たそがれマイ・ラヴ
TTITLE7=元気を出して
TTITLE8=ENDLESS STORY
TTITLE9=まちぶせ
TTITLE10=月のしずく
TTITLE11=迷い道
TTITLE12=CAN YOU CELEBRATE?
TTITLE13=喝采
EXTD=YEAR: 2007
EXTT0=
EXTT1=
EXTT2=
EXTT3=
EXTT4=
EXTT5=
EXTT6=
EXTT7=
EXTT8=
EXTT9=
EXTT10=
EXTT11=
EXTT12=
EXTT13=
PLAYORDER=
